<?xml version="1.0" encoding="UTF-8"?>
<svg xmlns="http://www.w3.org/2000/svg" xmlns:xlink="http://www.w3.org/1999/xlink" width="512px" height="512px" viewBox="0 0 512 512" version="1.1">
<g id="surface1">
<path style="fill:none;stroke-width:1.5;stroke-linecap:round;stroke-linejoin:round;stroke:rgb(0%,0%,0%);stroke-opacity:1;stroke-miterlimit:4;" d="M 3.999939 21.400085 L 3.999939 2.599915 C 3.999939 2.268677 4.268555 2.000061 4.599976 2.000061 L 16.251526 2.000061 C 16.410645 2.000061 16.563171 2.063232 16.675781 2.175659 L 19.82428 5.324341 C 19.93689 5.436768 20.000061 5.589478 20.000061 5.748596 L 20.000061 21.400085 C 20.000061 21.731323 19.731445 21.999939 19.400024 21.999939 L 4.599976 21.999939 C 4.268555 21.999939 3.999939 21.731323 3.999939 21.400085 Z M 3.999939 21.400085 " transform="matrix(21.333333,0,0,21.333333,0,0)"/>
<path style="fill-rule:nonzero;fill:rgb(0%,0%,0%);fill-opacity:1;stroke-width:1.5;stroke-linecap:round;stroke-linejoin:round;stroke:rgb(0%,0%,0%);stroke-opacity:1;stroke-miterlimit:4;" d="M 15.999939 5.399963 L 15.999939 2.353638 C 15.999939 2.158264 16.158325 2.000061 16.353516 2.000061 C 16.447266 2.000061 16.53717 2.037231 16.603638 2.103516 L 19.896423 5.396484 C 19.962891 5.462769 20.000061 5.552673 20.000061 5.646423 C 20.000061 5.841797 19.841675 6 19.646484 6 L 16.599976 6 C 16.268555 6 15.999939 5.731384 15.999939 5.399963 Z M 15.999939 5.399963 " transform="matrix(21.333333,0,0,21.333333,0,0)"/>
<path style="fill:none;stroke-width:1.5;stroke-linecap:round;stroke-linejoin:round;stroke:rgb(0%,0%,0%);stroke-opacity:1;stroke-miterlimit:4;" d="M 8.000061 9.999939 L 15.999939 9.999939 " transform="matrix(21.333333,0,0,21.333333,0,0)"/>
<path style="fill:none;stroke-width:1.5;stroke-linecap:round;stroke-linejoin:round;stroke:rgb(0%,0%,0%);stroke-opacity:1;stroke-miterlimit:4;" d="M 8.000061 18 L 15.999939 18 " transform="matrix(21.333333,0,0,21.333333,0,0)"/>
<path style="fill:none;stroke-width:1.5;stroke-linecap:round;stroke-linejoin:round;stroke:rgb(0%,0%,0%);stroke-opacity:1;stroke-miterlimit:4;" d="M 8.000061 14.000061 L 12 14.000061 " transform="matrix(21.333333,0,0,21.333333,0,0)"/>
</g>
</svg>
